<?xml version="1.0" standalone="no"?>
<!DOCTYPE svg PUBLIC "-//W3C//DTD SVG 20010904//EN"
 "http://www.w3.org/TR/2001/REC-SVG-20010904/DTD/svg10.dtd">
<svg version="1.0" xmlns="http://www.w3.org/2000/svg"
 width="500.000000pt" height="500.000000pt" viewBox="0 0 500.000000 500.000000"
 preserveAspectRatio="xMidYMid meet">

<g transform="translate(0.000000,500.000000) scale(0.100000,-0.100000)"
fill="#000000" stroke="none">
<path d="M1498 4042 c15 -25 62 -89 205 -279 22 -29 43 -53 48 -53 5 0 -10 24
-33 54 -24 30 -50 63 -58 75 -110 155 -166 230 -172 231 -4 0 0 -13 10 -28z"/>
<path d="M3246 4053 c-6 -14 -5 -15 5 -6 7 7 10 15 7 18 -3 3 -9 -2 -12 -12z"/>
<path d="M3464 4047 c-11 -14 -26 -35 -34 -47 -18 -27 -58 -81 -133 -180 -31
-41 -54 -76 -52 -78 5 -6 26 17 49 53 11 17 60 83 108 149 49 65 87 120 85
123 -3 2 -13 -7 -23 -20z"/>
<path d="M1731 4026 c12 -20 23 -36 25 -36 7 0 -25 58 -36 65 -5 3 -1 -10 11
-29z"/>
<path d="M1250 4036 c0 -11 36 -54 134 -157 44 -47 118 -125 164 -174 45 -48
85 -86 87 -83 4 4 -68 83 -246 272 -42 45 -90 97 -107 116 -17 19 -32 31 -32
26z"/>
<path d="M3690 4009 c-14 -17 -54 -61 -90 -99 -121 -126 -245 -263 -254 -279
-16 -31 295 294 356 371 35 45 24 51 -12 7z"/>
<path d="M1760 3975 c0 -5 10 -21 21 -35 13 -17 17 -18 10 -5 -17 33 -31 51
-31 40z"/>
<path d="M1800 3908 c0 -4 9 -22 20 -40 11 -18 20 -28 20 -23 0 6 -9 24 -20
40 -11 17 -20 27 -20 23z"/>
<path d="M2300 3885 c-52 -8 -124 -23 -159 -34 -35 -12 -68 -21 -73 -21 -6 0
-63 -26 -128 -59 -244 -121 -421 -293 -557 -541 -17 -30 -34 -66 -38 -80 -4
-14 -16 -43 -26 -65 -10 -22 -30 -89 -44 -149 -23 -96 -26 -129 -26 -280 0
-94 5 -193 10 -221 41 -206 85 -311 217 -510 90 -136 320 -328 469 -392 181
-77 308 -110 465 -119 277 -16 539 53 765 201 83 54 224 184 295 272 78 96
181 300 216 431 77 285 48 617 -74 872 -35 72 -101 183 -139 232 -44 56 -206
207 -274 254 -259 180 -577 254 -899 209z m333 -45 c347 -36 704 -271 878
-576 80 -141 139 -302 158 -431 25 -164 9 -375 -39 -530 -32 -106 -124 -283
-188 -364 -237 -300 -542 -460 -909 -476 -138 -6 -225 3 -358 37 -223 57 -424
184 -580 365 -22 25 -45 52 -52 59 -42 47 -163 261 -163 290 0 6 -7 24 -15 40
-8 15 -27 72 -42 125 -25 88 -27 111 -27 276 0 195 15 289 70 420 42 99 104
216 130 246 8 8 14 20 14 25 1 18 143 169 223 236 116 96 215 150 383 207 165
56 324 72 517 51z"/>
<path d="M2480 3741 c0 -25 -3 -70 -6 -98 -6 -49 -5 -53 13 -53 16 0 22 9 27
35 9 47 32 45 81 -5 28 -28 47 -40 68 -40 l29 0 -36 36 c-38 38 -44 49 -23 41
23 -8 45 12 51 48 12 60 -3 67 -151 78 l-53 4 0 -46z m114 3 c40 -6 46 -10 46
-30 0 -20 -5 -24 -29 -24 -63 0 -91 11 -91 36 0 26 4 27 74 18z"/>
<path d="M2299 3770 c-14 -8 -15 -15 -3 -62 23 -87 21 -93 -37 -106 -28 -7
-54 -12 -59 -12 -4 0 -16 34 -25 75 -15 71 -33 93 -50 65 -7 -12 23 -162 35
-174 15 -15 189 25 195 45 6 19 -20 158 -32 170 -5 4 -15 4 -24 -1z"/>
<path d="M2787 3644 c-14 -48 -24 -91 -21 -96 3 -4 13 -8 23 -8 16 0 39 62 64
175 1 6 -7 11 -19 13 -18 3 -24 -8 -47 -84z"/>
<path d="M2947 3588 c-52 -78 -56 -93 -29 -102 9 -3 42 -22 72 -41 68 -43 89
-44 135 -4 29 25 35 38 35 70 0 26 -7 46 -23 62 -22 24 -120 87 -136 87 -4 0
-29 -32 -54 -72z m88 12 c3 -5 21 -17 40 -26 30 -14 35 -21 35 -50 0 -25 -7
-38 -26 -51 -25 -16 -28 -16 -71 8 -24 13 -47 27 -49 31 -5 8 48 98 58 98 4 0
10 -4 13 -10z"/>
<path d="M1875 3604 c-38 -24 -73 -50 -77 -58 -5 -8 2 -33 18 -62 51 -97 73
-104 155 -48 85 58 95 69 80 96 -33 62 -35 62 -85 33 -25 -15 -46 -31 -46 -35
0 -18 20 -20 44 -5 26 18 46 13 46 -10 0 -12 -108 -83 -113 -74 -1 2 -12 18
-24 35 -35 51 -33 64 17 95 25 15 55 28 66 28 23 1 34 17 27 39 -8 21 -35 12
-108 -34z"/>
<path d="M2347 3530 c-121 -22 -286 -91 -376 -158 -266 -198 -409 -531 -361
-842 11 -74 28 -146 40 -175 5 -11 18 -42 29 -68 26 -61 138 -223 182 -262
156 -139 284 -203 484 -241 240 -45 528 34 710 196 175 156 272 329 304 547
49 326 -82 643 -349 845 -55 42 -191 107 -282 134 -65 20 -111 26 -208 29 -69
2 -146 0 -173 -5z m473 -284 c0 -3 -4 -8 -10 -11 -5 -3 -10 -1 -10 4 0 6 5 11
10 11 6 0 10 -2 10 -4z m100 -63 c19 -25 23 -26 31 -10 12 21 42 22 59 2 15
-18 10 -47 -10 -52 -12 -4 -12 -3 -1 5 18 13 5 52 -19 52 -24 0 -32 -23 -14
-48 13 -18 12 -20 -6 -15 -11 3 -28 21 -37 41 -9 19 -32 44 -50 54 -41 25 -44
34 -4 13 16 -8 39 -27 51 -42z m-690 30 c0 -5 -21 -9 -48 -9 -36 -1 -41 0 -22
6 33 11 70 12 70 3z m708 -108 c3 2 27 -14 54 -37 l49 -41 -5 52 c-4 46 -3 50
13 41 10 -5 30 -25 45 -45 55 -72 70 -143 41 -198 -13 -25 -13 -32 1 -59 8
-16 14 -32 12 -34 -3 -2 -14 15 -25 37 -21 40 -21 41 -2 60 37 37 15 136 -46
203 -14 15 -28 27 -30 25 -6 -7 34 -169 50 -200 9 -16 13 -29 9 -29 -3 0 -31
23 -62 50 -31 28 -60 50 -66 50 -5 0 -18 7 -28 17 -20 18 -39 10 -20 -9 7 -7
12 -19 12 -28 0 -8 -7 -2 -15 14 -8 15 -13 32 -10 37 3 4 -8 3 -25 -3 -24 -8
-34 -7 -43 2 -9 10 -8 12 4 7 9 -3 26 1 37 9 18 12 24 11 56 -11 22 -15 36
-20 36 -12 0 7 16 -5 36 -25 33 -36 54 -47 54 -30 0 4 -15 29 -32 56 -40 59
-105 100 -131 81 -9 -6 -13 -15 -9 -19 4 -4 -5 -5 -20 -1 -23 6 -30 3 -38 -16
-9 -21 -10 -21 -7 -3 4 17 -4 25 -33 38 -20 9 -45 25 -55 36 -18 20 -17 20 11
19 23 0 25 -2 10 -8 -17 -7 -16 -8 7 -24 32 -21 97 -31 117 -18 21 14 9 21
-49 28 -32 4 -51 11 -51 19 0 7 -12 22 -27 33 -14 12 -23 24 -19 28 3 4 13 -3
21 -14 15 -22 81 -50 92 -39 3 3 -11 15 -31 27 -40 23 -47 34 -16 24 15 -5 19
-3 14 10 -4 9 19 -11 51 -44 32 -34 60 -59 63 -56z m-834 73 c-16 -12 -44 -35
-63 -52 -21 -19 -30 -24 -24 -12 11 20 92 85 107 86 5 0 -4 -10 -20 -22z m106
19 c0 -2 -12 -14 -27 -28 l-28 -24 24 28 c23 25 31 32 31 24z m-196 -49 c-3
-13 -13 -35 -20 -50 -18 -35 -17 -48 1 -24 8 11 15 16 15 10 0 -5 -7 -18 -15
-28 -22 -30 -19 -33 27 -31 l42 3 -39 -20 c-22 -11 -50 -32 -62 -47 -12 -14
-22 -21 -23 -15 0 6 9 19 19 28 12 11 17 25 13 38 -5 20 -5 20 -24 -3 l-19
-24 16 33 c9 19 20 30 27 26 8 -5 9 -1 5 10 -4 10 0 33 9 52 21 45 11 54 -24
23 -15 -13 -13 -9 5 9 39 38 57 42 47 10z m531 -150 c18 -60 34 -98 43 -98 7
0 29 8 50 19 20 10 47 22 59 25 22 7 22 7 7 -31 -8 -21 -20 -48 -26 -60 -6
-12 -8 -28 -6 -35 5 -12 226 -88 256 -88 30 0 8 -19 -35 -30 -27 -6 -70 -20
-98 -30 -27 -10 -65 -22 -83 -25 -18 -4 -35 -12 -38 -19 -2 -6 7 -40 21 -76
14 -35 25 -65 25 -66 0 -2 -29 10 -65 27 -78 35 -82 35 -90 7 -20 -72 -77
-249 -80 -246 -1 2 -22 59 -45 128 -23 69 -45 128 -49 132 -3 4 -33 -4 -65
-17 -33 -13 -62 -22 -65 -19 -3 2 5 28 18 57 12 28 25 57 27 63 5 10 -156 68
-248 90 -32 7 -38 24 -9 24 11 0 50 11 88 24 37 13 89 30 116 36 26 7 50 17
53 22 3 5 -3 25 -14 46 -27 52 -37 96 -20 89 7 -3 37 -15 66 -28 29 -12 54
-20 55 -18 2 2 23 64 47 137 l45 133 16 -38 c8 -21 28 -82 44 -135z m-426 116
c-20 -24 -99 -76 -99 -65 0 5 8 12 18 15 10 4 34 20 52 36 37 33 50 39 29 14z
m-207 -53 c-9 -16 -18 -28 -21 -26 -4 5 27 55 34 55 2 0 -4 -13 -13 -29z
m1057 -21 c11 -24 11 -24 -3 -6 -9 11 -16 24 -16 30 0 12 5 7 19 -24z m-819
-8 c0 -10 -28 -35 -50 -46 -8 -4 -3 4 12 18 l28 25 -28 4 c-25 4 -24 4 6 6 17
0 32 -3 32 -7z m-330 -53 c-11 -24 -20 -38 -20 -31 0 19 29 86 35 80 3 -3 -4
-25 -15 -49z m67 19 c-3 -8 -6 -5 -6 6 -1 11 2 17 5 13 3 -3 4 -12 1 -19z
m193 -23 c0 -2 -10 -10 -22 -16 -21 -11 -22 -11 -9 4 13 16 31 23 31 12z
m-203 -42 c-3 -10 -5 -4 -5 12 0 17 2 24 5 18 2 -7 2 -21 0 -30z m48 5 c-3
-42 -15 -78 -26 -78 -5 0 -9 4 -9 9 0 5 -3 16 -6 25 -4 10 -1 16 9 16 9 0 19
5 23 12 4 7 3 8 -5 4 -8 -6 -8 -1 1 18 15 33 16 33 13 -6z m85 -16 c0 -10 -7
-27 -15 -38 -15 -19 -15 -19 -8 1 6 18 3 17 -21 -4 -19 -18 -29 -22 -37 -14
-8 8 2 20 33 41 52 37 48 36 48 14z m1005 -40 c-5 -6 -53 31 -59 46 -3 7 10 0
29 -15 19 -15 32 -29 30 -31z m-1178 16 c-3 -8 -6 -5 -6 6 -1 11 2 17 5 13 3
-3 4 -12 1 -19z m-40 -75 c-1 -68 -3 -80 -9 -53 -7 31 -2 140 7 140 1 0 2 -39
2 -87z m1378 63 c-11 -8 -16 -19 -12 -30 10 -25 42 -15 41 11 0 12 4 19 9 16
5 -3 6 -15 3 -28 -3 -13 1 -39 9 -59 8 -19 14 -57 14 -83 l-2 -48 -7 55 c-8
68 -28 110 -51 110 -11 0 -21 10 -25 24 -7 30 1 46 24 46 14 0 13 -2 -3 -14z
m-95 -16 c10 -7 11 -10 2 -10 -8 0 -10 -8 -6 -25 7 -30 -10 -55 -39 -55 -18 0
-19 -5 -14 -57 3 -35 2 -50 -3 -38 -10 24 -13 136 -4 159 3 9 10 16 15 16 5 0
4 -9 -3 -20 -10 -16 -10 -23 4 -36 36 -36 52 15 16 53 -20 22 -21 23 -2 23 10
0 26 -5 34 -10z m-1166 -50 c-10 -16 -20 -27 -22 -25 -5 5 26 55 34 55 3 0 -3
-13 -12 -30z m40 -22 c-16 -30 -16 -32 -1 -19 10 7 17 9 17 3 0 -5 -6 -15 -14
-21 -8 -6 -24 -35 -36 -63 -18 -43 -21 -65 -17 -121 2 -40 1 -63 -4 -56 -12
19 -11 122 1 153 6 17 6 26 0 26 -10 0 31 91 52 118 18 22 19 13 2 -20z m1176
-168 c13 -23 14 -24 21 -5 6 15 8 10 8 -19 1 -38 2 -39 20 -22 11 10 25 31 31
47 7 16 15 28 17 25 6 -6 -16 -47 -40 -73 -20 -22 -64 -33 -52 -13 8 13 -37
102 -77 152 -17 21 -28 41 -25 44 2 3 15 -11 27 -30 27 -45 41 -46 39 -3 -4
78 5 84 11 7 4 -47 13 -96 20 -110z m56 104 c-9 -26 -16 -56 -16 -66 0 -10 -3
-18 -7 -18 -5 0 -9 28 -10 63 -1 43 1 53 6 32 l7 -30 13 38 c7 21 15 36 18 33
3 -3 -2 -26 -11 -52z m-1304 -20 c2 -19 0 -37 -4 -40 -4 -3 -8 13 -8 35 0 51
6 53 12 5z m73 -92 c-8 -56 -15 -107 -15 -114 0 -6 -3 -9 -6 -6 -3 4 -1 42 5
85 18 123 22 145 27 140 2 -2 -2 -50 -11 -105z m-140 10 c16 -28 26 -54 23
-57 -4 -4 -64 105 -76 140 -8 20 25 -31 53 -83z m-69 50 c2 -9 5 -35 8 -57 4
-25 3 -34 -3 -25 -10 19 -24 116 -14 106 4 -3 8 -14 9 -24z m111 -44 c-2 -13
-4 -3 -4 22 0 25 2 35 4 23 2 -13 2 -33 0 -45z m-17 8 c0 -5 -7 -1 -15 10 -8
10 -14 24 -14 29 0 6 6 1 14 -9 8 -11 15 -24 15 -30z m1275 -74 c-5 -5 -49 22
-58 36 -8 12 -39 16 -50 6 -3 -3 -1 -18 4 -32 8 -20 6 -29 -9 -46 -11 -12 -27
-34 -35 -51 -11 -19 -16 -24 -17 -13 0 10 14 33 31 52 25 30 28 38 19 56 -9
17 -7 26 12 48 l22 27 42 -40 c23 -22 40 -41 39 -43z m-55 4 c0 -2 -8 -10 -17
-17 -16 -13 -17 -12 -4 4 13 16 21 21 21 13z m-1269 -51 c8 -16 6 -15 -10 4
-12 13 -21 28 -21 35 0 12 14 -5 31 -39z m207 20 c7 -14 12 -34 11 -43 0 -9
-6 -2 -13 16 -6 18 -15 30 -19 26 -4 -4 -7 0 -7 9 0 25 15 20 28 -8z m-119
-30 c0 -5 -6 -1 -14 9 -8 11 -15 24 -15 30 0 5 7 1 15 -10 8 -10 14 -23 14
-29z m1345 32 c11 -8 16 -20 13 -28 -4 -11 -6 -10 -6 2 -1 24 -32 33 -50 14
-15 -15 -14 -18 8 -36 13 -10 19 -19 13 -19 -13 0 -42 28 -42 40 0 10 29 40
39 40 4 0 15 -6 25 -13z m-99 -63 l-24 -55 22 6 c12 3 5 -5 -18 -19 -52 -34
-65 -33 -32 2 22 23 57 88 57 107 0 11 -43 -18 -76 -50 -18 -18 -38 -52 -45
-76 -7 -24 -19 -52 -27 -61 -14 -17 -12 -18 20 -18 19 0 55 11 81 23 25 13 44
20 40 14 -11 -17 -88 -47 -125 -47 -39 0 -60 17 -37 31 8 4 26 48 42 96 15 48
25 73 22 55 l-5 -34 47 41 c25 23 54 41 64 41 18 0 17 -4 -6 -56z m-1158 -16
c-2 -13 -4 -3 -4 22 0 25 2 35 4 23 2 -13 2 -33 0 -45z m-117 -20 c0 -5 -11 3
-25 18 -14 15 -25 29 -25 32 0 3 11 -5 25 -18 14 -13 25 -27 25 -32z m60 41
c0 7 4 10 10 6 5 -3 8 -19 7 -34 -2 -34 -11 -31 -34 12 -15 30 -15 31 0 18 12
-9 17 -10 17 -2z m107 -31 c-3 -8 -6 -5 -6 6 -1 11 2 17 5 13 3 -3 4 -12 1
-19z m117 -87 c-2 -3 -11 5 -20 18 -30 42 -57 62 -66 49 -5 -8 -8 -2 -8 16 0
28 1 28 50 -25 27 -29 47 -55 44 -58z m-350 93 c9 -3 16 -10 16 -16 0 -5 -4
-6 -10 -3 -19 12 -10 -12 20 -53 17 -23 39 -47 50 -54 11 -7 20 -17 20 -22 0
-16 -61 46 -91 93 -37 58 -38 68 -5 55z m1400 -34 c-20 -33 -32 -34 -15 -1 10
17 9 20 -5 14 -12 -4 -15 -3 -10 5 4 7 16 12 27 12 20 0 20 -1 3 -30z m-1328
-21 c4 -8 1 -8 -14 0 -12 6 -24 16 -28 22 -4 8 -1 8 14 0 12 -6 24 -16 28 -22z
m35 15 c9 -8 25 -17 35 -18 10 -2 20 -8 22 -15 5 -14 -53 13 -76 35 -19 19 -3
18 19 -2z m153 -54 l7 -35 -16 34 c-8 18 -15 43 -14 55 0 20 1 20 8 1 5 -11
11 -36 15 -55z m906 29 c0 -23 -5 -30 -27 -35 -16 -3 -34 -7 -40 -10 -7 -2
-13 1 -13 6 0 6 -7 10 -15 10 -13 0 -14 2 -3 14 11 12 13 12 16 0 2 -8 16 -14
33 -14 23 0 29 4 29 21 0 12 -8 27 -17 34 -16 12 -14 12 10 8 22 -4 27 -11 27
-34z m-60 27 c0 -3 -4 -8 -10 -11 -5 -3 -10 -1 -10 4 0 6 5 11 10 11 6 0 10
-2 10 -4z m-874 -93 c14 -18 32 -33 40 -33 7 0 14 -7 14 -15 0 -13 -8 -11 -42
7 -43 24 -84 58 -69 58 5 0 14 -7 21 -15 24 -29 32 -15 11 19 -12 18 -21 40
-20 47 0 8 5 3 10 -11 6 -13 21 -39 35 -57z m-91 32 c19 -15 18 -15 -12 -1
-17 9 -35 21 -39 27 -8 13 21 -1 51 -26z m187 -52 c16 -24 27 -43 24 -43 -8 0
-76 103 -76 115 0 5 6 1 12 -10 6 -11 24 -39 40 -62z m694 27 c-22 -27 -46
-86 -46 -115 0 -5 16 8 36 30 20 22 30 31 23 21 -13 -18 -12 -19 6 -13 14 5
10 -2 -12 -23 -18 -16 -33 -32 -33 -35 0 -9 39 -5 45 4 3 5 18 12 34 16 15 3
41 20 57 37 l29 31 -27 -7 c-14 -3 -34 -9 -45 -12 -13 -5 -15 -4 -7 5 13 14
84 27 84 15 -1 -13 -21 -36 -54 -62 l-29 -22 34 4 c19 3 41 5 50 5 11 1 15 8
12 24 -3 14 3 26 16 34 21 13 51 8 51 -9 0 -6 -7 -5 -16 2 -12 11 -18 11 -30
-2 -21 -21 -7 -51 22 -45 19 3 22 1 14 -13 -12 -23 -89 -60 -121 -59 -21 1
-21 2 6 9 46 12 85 29 85 37 0 10 -155 0 -187 -11 -26 -9 -33 -56 -8 -56 36 0
63 -23 67 -56 4 -33 3 -34 -34 -34 -41 0 -65 -27 -53 -58 5 -13 3 -14 -5 -6
-6 6 -12 18 -13 25 -6 39 -57 58 -57 22 0 -14 -2 -15 -9 -4 -5 8 -16 11 -31 6
-71 -23 -262 -22 -354 1 -22 5 -25 2 -29 -28 l-4 -33 -1 38 c-2 34 -5 38 -24
35 -14 -2 -24 -12 -28 -27 l-5 -23 -15 27 c-13 24 -19 26 -58 23 -39 -3 -43
-1 -38 17 3 11 6 32 6 46 0 18 5 26 18 26 73 -1 75 0 67 40 -4 21 -12 41 -18
45 -7 4 -8 8 -3 8 5 0 1 10 -10 22 l-19 22 32 -23 c22 -15 32 -29 30 -44 -2
-23 0 -24 46 -13 26 6 27 5 27 -34 0 -35 3 -40 28 -45 15 -4 46 -10 69 -16 82
-18 284 -2 311 26 3 3 5 24 3 46 -2 37 0 39 18 30 11 -6 29 -11 40 -11 28 0
27 30 0 37 -11 3 -17 9 -12 12 5 3 17 28 27 54 10 27 27 57 39 68 31 28 32 23
3 -11z m-625 -22 c16 -29 2 -21 -22 15 -17 23 -18 28 -6 18 10 -8 23 -23 28
-33z m679 8 c0 -2 -8 -10 -17 -17 -16 -13 -17 -12 -4 4 13 16 21 21 21 13z
m-934 -31 c10 -8 14 -15 8 -15 -5 0 -19 7 -30 15 -10 8 -14 15 -8 15 5 0 19
-7 30 -15z m299 -55 c9 -32 2 -25 -20 20 -13 27 -14 32 -2 20 8 -8 18 -26 22
-40z m-127 7 c3 -15 -8 -17 -95 -17 -90 -1 -96 -2 -73 -15 30 -17 21 -20 -15
-3 -14 6 -25 15 -25 20 0 8 51 12 100 8 19 -2 22 1 13 12 -9 11 -2 13 40 12
40 0 53 -4 55 -17z m45 -24 c-7 -2 -19 -2 -25 0 -7 3 -2 5 12 5 14 0 19 -2 13
-5z m529 -35 c-8 -8 -9 -4 -5 13 4 13 8 18 11 10 2 -7 -1 -18 -6 -23z m-682 2
c8 -5 11 -10 5 -10 -5 0 -17 5 -25 10 -8 5 -10 10 -5 10 6 0 17 -5 25 -10z
m142 -31 c-10 -10 -21 -13 -26 -8 -6 5 -21 9 -35 10 -15 0 -35 4 -45 8 -12 5
9 7 51 7 66 -1 70 -2 55 -17z m308 6 l75 -14 -69 5 c-38 3 -79 10 -90 14 -30
12 -2 11 84 -5z m175 5 c-11 -5 -36 -8 -55 -8 l-35 1 40 7 c57 10 74 10 50 0z
m245 -5 c19 -23 8 -26 -19 -4 -16 13 -18 19 -8 19 8 0 20 -7 27 -15z m16 -182
c-11 -11 -17 4 -9 23 7 18 8 18 11 1 2 -10 1 -21 -2 -24z m-709 1 c-3 -3 -12
-4 -19 -1 -8 3 -5 6 6 6 11 1 17 -2 13 -5z m180 -30 c-3 -3 -12 -4 -19 -1 -8
3 -5 6 6 6 11 1 17 -2 13 -5z m40 -10 c-3 -3 -12 -4 -19 -1 -8 3 -5 6 6 6 11
1 17 -2 13 -5z"/>
<path d="M2223 2105 c-14 -10 -21 -25 -21 -45 1 -30 11 -39 23 -20 3 6 15 10
26 10 15 0 19 7 19 35 0 39 -13 44 -47 20z"/>
<path d="M2700 2085 c0 -24 5 -35 14 -35 8 0 21 -3 30 -6 13 -5 16 1 16 29 0
28 -5 36 -22 41 -36 9 -38 8 -38 -29z"/>
<path d="M1611 3367 l-60 -74 70 -54 c38 -30 73 -54 78 -54 5 0 34 31 66 69
40 50 53 72 45 80 -8 8 -24 -4 -59 -43 -34 -39 -52 -53 -64 -48 -23 9 -21 20
8 55 20 24 22 32 11 41 -10 8 -18 4 -36 -19 -24 -31 -44 -38 -55 -20 -6 10 54
94 78 111 11 8 1 29 -13 29 -5 0 -36 -33 -69 -73z"/>
<path d="M3230 3384 c-25 -7 -54 -14 -65 -14 -11 0 -26 -4 -34 -9 -23 -14 6
-44 36 -38 34 6 105 -68 96 -101 -3 -15 1 -30 13 -43 18 -20 18 -20 27 3 27
70 56 184 51 200 -7 22 -58 23 -124 2z m80 -33 c0 -5 -6 -20 -13 -35 l-14 -26
-22 24 -22 24 28 10 c36 13 43 14 43 3z"/>
<path d="M3403 3138 c-46 -17 -83 -36 -83 -42 0 -26 60 -152 80 -168 35 -29
86 -23 122 13 27 27 30 34 25 74 -8 55 -40 148 -52 151 -6 2 -47 -11 -92 -28z
m96 -73 c17 -57 8 -93 -23 -101 -41 -10 -61 4 -83 55 l-21 49 47 20 c25 11 51
21 56 21 6 1 17 -19 24 -44z"/>
<path d="M1463 3133 c-3 -10 -12 -34 -20 -53 -40 -95 -38 -114 14 -131 42 -14
46 -10 77 66 25 62 33 70 54 57 10 -7 8 -21 -9 -65 -12 -31 -28 -57 -35 -57
-19 0 -18 -39 2 -47 22 -8 36 11 69 95 32 83 29 101 -23 116 -46 13 -58 3 -83
-64 -24 -66 -29 -72 -48 -61 -17 11 2 84 30 112 10 10 19 26 19 34 0 21 -39
19 -47 -2z"/>
<path d="M1810 1983 c0 -9 -28 -46 -79 -105 -32 -37 -33 -40 -17 -56 16 -16
19 -15 41 11 13 15 26 27 28 27 3 0 27 -18 53 -40 27 -22 56 -40 64 -40 20 0
70 51 70 71 0 8 -30 40 -66 70 -72 60 -94 74 -94 62z m87 -106 c21 -18 21 -47
1 -47 -15 0 -88 54 -88 66 0 5 5 15 12 22 12 12 15 11 75 -41z"/>
<path d="M3076 1927 c-17 -12 -17 -18 -1 -112 10 -55 19 -104 22 -108 9 -15
33 16 33 43 0 38 75 101 107 89 20 -7 65 13 53 24 -5 5 -186 77 -193 77 -2 0
-11 -6 -21 -13z m94 -64 c0 -10 -45 -41 -52 -36 -5 2 -8 17 -8 33 0 28 1 29
30 19 17 -6 30 -13 30 -16z"/>
<path d="M1968 1782 c-50 -111 -50 -110 -27 -117 11 -4 22 -5 23 -3 1 1 7 16
14 31 10 23 15 26 31 17 11 -5 27 -30 37 -55 16 -42 48 -74 61 -61 3 3 -1 22
-10 43 l-15 38 31 0 c26 0 35 6 52 37 l20 38 -25 17 c-13 10 -55 32 -93 50
l-68 32 -31 -67z m160 -40 c13 -36 -50 -39 -95 -4 -16 12 -21 24 -17 38 l6 22
50 -22 c28 -11 53 -27 56 -34z"/>
<path d="M2879 1805 c-59 -22 -99 -45 -99 -58 0 -6 14 -45 32 -84 22 -50 37
-73 49 -73 28 0 137 58 153 82 31 43 14 117 -31 137 -30 14 -59 13 -104 -4z
m99 -78 c3 -33 0 -38 -41 -61 -24 -14 -48 -26 -53 -26 -11 0 -59 98 -52 106 3
3 28 13 54 24 61 23 87 11 92 -43z"/>
<path d="M2231 1713 c-31 -126 -34 -145 -20 -154 8 -5 17 -9 21 -9 14 0 52
175 42 191 -12 21 -34 7 -43 -28z"/>
<path d="M2612 1718 c-10 -13 -72 -182 -72 -198 0 -17 42 4 52 26 8 17 25 26
65 35 53 12 56 12 73 -10 12 -17 23 -22 39 -16 27 8 23 15 -57 105 -64 70 -81
81 -100 58z m38 -46 c0 -5 9 -18 19 -29 20 -21 19 -21 -17 -27 -20 -3 -37 -4
-39 -2 -6 6 19 66 28 66 5 0 9 -4 9 -8z"/>
<path d="M2312 1712 c2 -5 21 -48 42 -95 43 -97 67 -111 98 -59 9 15 32 53 52
85 20 32 36 60 36 63 0 2 -9 4 -19 4 -13 0 -32 -20 -56 -60 -20 -33 -41 -60
-46 -60 -5 0 -14 12 -19 28 -30 82 -43 102 -67 102 -14 0 -23 -4 -21 -8z"/>
<path d="M1850 3811 c0 -6 4 -13 10 -16 6 -3 7 1 4 9 -7 18 -14 21 -14 7z"/>
<path d="M1200 3794 c7 -11 29 -32 50 -49 35 -28 100 -83 214 -179 55 -47 76
-60 75 -49 0 4 -37 37 -81 73 -44 36 -110 91 -147 124 -36 32 -79 67 -94 78
-27 19 -28 19 -17 2z"/>
<path d="M3715 3758 c-84 -70 -152 -129 -183 -158 -15 -14 -43 -37 -62 -52
-19 -15 -32 -29 -29 -32 2 -3 19 7 36 22 17 15 39 34 50 42 158 130 258 219
252 224 -2 2 -31 -18 -64 -46z"/>
<path d="M3225 3720 c-3 -5 -1 -10 4 -10 6 0 11 5 11 10 0 6 -2 10 -4 10 -3 0
-8 -4 -11 -10z"/>
<path d="M1172 3575 c14 -15 263 -175 272 -175 13 0 12 0 -74 59 -135 93 -180
121 -192 121 -6 0 -9 -2 -6 -5z"/>
<path d="M3759 3563 c-13 -10 -32 -22 -41 -28 -32 -19 -188 -127 -188 -131 0
-9 109 55 130 76 7 7 39 26 81 49 37 21 68 51 52 51 -6 0 -21 -8 -34 -17z"/>
<path d="M1160 3383 c0 -5 26 -21 58 -37 31 -15 74 -37 95 -48 20 -11 42 -18
47 -16 6 2 -4 11 -22 20 -18 9 -66 32 -105 52 -40 20 -73 33 -73 29z"/>
<path d="M3760 3365 c-25 -14 -69 -36 -98 -51 -30 -14 -51 -28 -48 -31 6 -6
160 67 191 91 31 23 5 18 -45 -9z"/>
<path d="M1000 3258 c0 -11 232 -96 289 -106 32 -6 -76 40 -163 69 -49 17 -97
34 -107 40 -14 7 -19 6 -19 -3z"/>
<path d="M3925 3248 c-16 -5 -43 -16 -60 -23 -16 -7 -43 -17 -60 -21 -35 -8
-135 -52 -135 -59 0 -3 30 7 68 21 37 14 81 30 97 34 40 10 118 41 130 52 12
10 -1 9 -40 -4z"/>
<path d="M4186 3183 c-6 -14 -5 -15 5 -6 7 7 10 15 7 18 -3 3 -9 -2 -12 -12z"/>
<path d="M812 3130 c16 -26 70 -47 178 -68 30 -6 99 -20 153 -32 55 -12 101
-20 103 -17 2 2 -49 16 -113 31 -65 15 -143 34 -173 42 -30 9 -73 20 -94 25
-22 6 -46 18 -54 27 -12 14 -12 13 0 -8z"/>
<path d="M4149 3132 c-17 -19 -212 -73 -376 -104 -29 -6 -53 -15 -53 -20 0 -6
7 -7 16 -4 8 3 79 20 157 36 78 17 163 36 188 41 42 9 100 51 88 64 -3 2 -12
-3 -20 -13z"/>
<path d="M622 2976 c24 -31 54 -57 68 -60 23 -5 91 -13 335 -36 50 -4 115 -11
145 -15 34 -4 49 -3 40 3 -8 5 -64 14 -125 21 -60 6 -181 21 -267 33 l-157 22
-31 43 c-17 24 -36 43 -41 43 -6 0 9 -24 33 -54z"/>
<path d="M4339 2980 c-33 -39 -36 -41 -137 -55 -57 -8 -180 -24 -274 -35 -94
-11 -174 -23 -177 -26 -3 -4 19 -4 49 0 91 11 454 45 482 46 16 0 105 97 96
105 -2 2 -20 -13 -39 -35z"/>
<path d="M700 2793 c0 -6 21 -30 48 -53 l47 -42 89 6 c49 3 141 6 204 6 190 0
119 11 -105 17 l-208 5 -37 36 c-21 20 -38 31 -38 25z"/>
<path d="M4227 2758 l-32 -33 -215 -5 -215 -5 210 -7 209 -7 48 45 c26 24 42
44 37 44 -6 0 -25 -15 -42 -32z"/>
<path d="M830 2592 c0 -5 21 -23 46 -41 45 -33 47 -33 102 -23 31 6 86 14 122
18 63 7 122 22 90 23 -8 1 -73 -6 -144 -14 l-130 -15 -37 30 c-39 31 -49 36
-49 22z"/>
<path d="M4093 2568 l-42 -31 -89 12 c-48 6 -106 10 -128 10 -33 -1 -29 -3 21
-10 33 -5 91 -14 128 -20 66 -11 69 -10 108 17 22 15 42 31 45 36 13 20 -3 15
-43 -14z"/>
<path d="M946 2421 c-8 -13 60 -51 91 -51 40 0 193 41 176 47 -6 2 -39 -3 -72
-12 -88 -22 -124 -22 -159 4 -17 12 -33 17 -36 12z"/>
<path d="M4010 2422 c0 -5 -17 -16 -37 -25 -36 -16 -43 -16 -128 2 -92 20
-128 21 -58 2 146 -39 155 -40 198 -15 40 23 56 44 36 44 -6 0 -11 -4 -11 -8z"/>
<path d="M1206 2263 c-12 -12 -189 -73 -213 -73 -8 0 -28 7 -44 16 -17 8 -38
14 -47 12 -11 -3 2 -12 33 -27 44 -20 55 -21 95 -11 25 6 59 17 75 25 17 7 53
20 80 30 58 20 78 35 49 35 -12 0 -24 -3 -28 -7z"/>
<path d="M3726 2260 c5 -5 63 -28 129 -51 l119 -41 53 18 c29 10 53 22 53 26
0 12 -10 10 -65 -11 -32 -12 -56 -16 -70 -10 -47 19 -216 79 -222 79 -4 0 -3
-4 3 -10z"/>
<path d="M1135 2050 c-88 -44 -172 -79 -186 -80 -15 0 -45 7 -68 15 -31 10
-41 11 -41 2 0 -7 27 -20 59 -29 l59 -18 177 90 c98 49 180 92 183 95 21 20
-46 -7 -183 -75z"/>
<path d="M3665 2122 c6 -6 82 -47 170 -93 88 -45 164 -85 169 -90 5 -4 21 -2
35 5 14 8 41 17 59 21 17 3 32 11 32 16 0 13 -21 11 -69 -6 -49 -17 -39 -20
-236 76 -172 85 -174 85 -160 71z"/>
<path d="M1350 2054 c0 -6 7 -19 16 -30 14 -18 14 -18 3 6 -14 31 -19 36 -19
24z"/>
<path d="M3606 2033 c-6 -14 -5 -15 5 -6 7 7 10 15 7 18 -3 3 -9 -2 -12 -12z"/>
<path d="M3566 1970 c-14 -22 -22 -40 -18 -40 5 0 14 11 20 25 6 14 15 25 19
25 5 0 33 -18 63 -39 47 -34 116 -79 205 -134 11 -6 22 -14 25 -17 3 -3 35
-25 72 -49 65 -41 71 -43 121 -37 52 7 86 20 76 30 -3 3 -21 1 -40 -4 -62 -18
-93 -12 -153 30 -31 22 -61 40 -65 40 -5 0 -14 6 -20 14 -7 8 -26 21 -44 30
-44 22 -64 35 -122 77 -27 19 -64 44 -82 54 -18 10 -30 22 -27 27 3 4 3 8 1 8
-2 0 -16 -18 -31 -40z"/>
<path d="M1326 1965 c-26 -19 -49 -35 -51 -35 -3 0 -18 -8 -33 -19 -15 -10
-61 -40 -102 -66 -41 -26 -101 -65 -132 -87 l-58 -39 -60 12 c-55 11 -82 8
-68 -6 3 -3 33 -10 66 -16 l61 -11 76 51 c42 28 79 51 82 51 2 0 19 11 37 25
18 14 36 25 39 25 3 0 44 26 89 58 46 32 90 61 100 64 12 5 25 -8 52 -49 l37
-56 -38 -31 c-252 -208 -251 -207 -306 -206 -75 2 -82 1 -71 -9 5 -5 35 -11
66 -12 54 -2 60 0 104 37 26 21 51 40 55 42 9 3 32 23 123 102 79 69 73 67
108 24 17 -22 66 -72 107 -111 42 -40 71 -73 66 -73 -6 0 -28 -25 -50 -55 -37
-51 -43 -55 -92 -61 -30 -3 -56 -11 -60 -17 -4 -7 10 -8 42 -4 26 4 53 7 59 7
7 0 34 29 60 65 26 36 51 65 55 65 4 0 16 -9 26 -20 10 -11 22 -20 28 -20 5 0
23 -12 40 -26 34 -29 255 -138 302 -149 17 -4 46 -9 65 -11 l35 -4 -30 11
c-141 50 -310 130 -387 183 -131 90 -257 218 -343 349 -21 31 -41 57 -46 57
-4 0 -28 -16 -53 -35z"/>
<path d="M3529 1912 c-15 -37 -208 -237 -269 -278 -19 -13 -55 -37 -78 -54
-53 -37 -157 -90 -277 -140 -54 -23 -231 -60 -318 -66 -110 -8 -123 -18 -20
-15 87 2 220 25 303 52 91 30 294 131 360 180 l55 40 33 -38 c19 -21 29 -29
24 -18 -6 11 -19 29 -31 39 -20 18 -19 19 80 117 54 54 99 103 99 109 0 18 26
11 47 -12 22 -24 58 -55 189 -161 l80 -66 57 6 c78 8 72 23 -8 23 -57 0 -69 3
-91 25 -14 14 -28 25 -32 25 -4 0 -24 16 -45 35 -21 20 -70 61 -108 91 -38 31
-69 59 -69 62 0 3 7 14 17 24 9 10 14 21 11 24 -3 3 -8 1 -9 -4z"/>
<path d="M1472 1655 l-82 -85 -55 0 c-30 0 -55 -4 -55 -10 0 -5 25 -10 55 -10
51 0 58 3 97 43 98 100 131 137 127 142 -3 2 -42 -33 -87 -80z"/>
<path d="M3455 1679 c125 -133 117 -127 170 -130 28 -1 51 2 53 7 1 5 -22 10
-52 12 -52 3 -55 4 -116 73 -35 38 -72 75 -84 81 -12 6 2 -14 29 -43z"/>
<path d="M1782 1514 c-7 -8 -16 -22 -20 -31 -16 -40 -76 -135 -86 -138 -6 -2
-27 -6 -46 -9 -41 -7 -67 -22 -57 -32 9 -10 87 15 111 35 10 9 28 33 40 54 11
21 28 52 37 68 9 16 22 36 29 44 16 20 9 28 -8 9z"/>
<path d="M3380 1512 c24 -16 110 -26 110 -13 0 6 -13 11 -29 11 -16 0 -44 3
-62 6 -24 4 -30 2 -19 -4z"/>
<path d="M3260 1370 c6 -11 13 -20 16 -20 2 0 0 9 -6 20 -6 11 -13 20 -16 20
-2 0 0 -9 6 -20z"/>
<path d="M3310 1326 c34 -18 90 -30 90 -18 0 10 -67 32 -96 32 -16 -1 -15 -3
6 -14z"/>
<path d="M1486 1062 c-69 -69 -126 -129 -126 -133 0 -10 129 -85 235 -137 108
-53 287 -119 370 -137 33 -7 92 -20 130 -28 240 -52 583 -44 880 22 171 38
463 157 578 235 21 14 42 26 47 26 32 0 6 35 -109 149 l-130 128 -123 -61
c-469 -233 -1046 -233 -1505 0 l-121 62 -126 -126z m241 -9 c37 -23 43 -32 43
-66 0 -17 -10 -38 -26 -54 -26 -26 -44 -27 -111 -7 -17 5 -23 0 -34 -30 -13
-37 -35 -47 -45 -22 -3 8 5 34 17 58 13 23 24 45 24 48 1 3 13 29 28 57 25 49
29 52 52 43 14 -5 37 -17 52 -27z m1605 -13 c53 -41 75 -136 42 -185 -22 -34
-75 -50 -119 -35 -46 15 -85 79 -85 139 0 35 6 48 31 72 38 35 93 39 131 9z
m-1382 -69 c39 -28 39 -75 0 -111 -31 -29 -32 -30 -21 -81 6 -29 9 -54 7 -56
-13 -13 -44 21 -51 54 -8 43 -22 73 -34 73 -5 0 -17 -20 -28 -45 -19 -48 -21
-49 -41 -36 -11 7 -9 22 8 82 12 41 25 83 30 94 4 11 11 28 14 39 5 16 13 18
49 12 23 -4 53 -15 67 -25z m1171 -75 c35 -109 39 -139 19 -143 -12 -3 -25 24
-53 104 -43 126 -45 136 -16 131 18 -2 27 -20 50 -92z m-141 34 c0 -16 -7 -20
-37 -20 -71 0 -109 -78 -67 -138 33 -47 114 -48 114 -2 0 13 -10 24 -25 30
-14 5 -25 14 -25 19 0 11 68 27 77 17 3 -3 8 -28 11 -54 4 -43 1 -51 -19 -66
-36 -25 -120 -21 -152 7 -48 41 -54 141 -10 190 24 26 50 36 96 36 31 1 37 -2
37 -19z m-833 -2 c41 -10 53 -17 53 -31 0 -15 -5 -18 -22 -14 -83 19 -85 19
-92 -5 -11 -42 -7 -48 29 -48 26 0 35 -4 35 -16 0 -14 -7 -16 -39 -11 -38 5
-39 4 -46 -30 -3 -19 -5 -36 -3 -38 2 -2 27 -9 55 -17 39 -10 50 -16 44 -26
-6 -11 -20 -11 -74 -1 -79 15 -77 11 -50 156 20 105 17 102 110 81z m236 -37
c18 -18 -3 -29 -43 -24 -38 5 -40 4 -40 -20 0 -16 10 -33 28 -46 68 -51 78
-80 42 -119 -22 -23 -91 -31 -118 -14 -21 14 -3 44 22 36 23 -7 22 -7 54 -5
33 2 28 35 -10 65 -18 15 -39 31 -45 37 -28 22 -10 88 27 102 19 8 71 0 83
-12z m356 -68 c20 -139 19 -158 -4 -158 -18 0 -21 11 -32 90 -17 134 -17 155
6 155 15 0 20 -13 30 -87z m-99 63 c0 -10 -13 -16 -37 -18 l-38 -3 -2 -95 c-1
-52 -2 -101 -2 -108 -1 -8 -9 -12 -18 -10 -15 3 -19 19 -23 108 l-5 105 -37
-3 c-28 -3 -38 0 -38 11 0 24 11 27 107 27 74 0 93 -3 93 -14z"/>
<path d="M1652 1015 c-19 -40 -14 -53 19 -60 35 -8 49 4 49 42 0 20 -25 43
-48 43 -5 0 -14 -11 -20 -25z"/>
<path d="M3227 1002 c-22 -25 -21 -54 3 -102 23 -45 58 -60 96 -40 18 10 24
22 24 47 0 85 -78 145 -123 95z"/>
<path d="M1864 925 c-8 -32 6 -48 37 -43 19 2 24 9 24 33 0 25 -4 31 -27 33
-22 3 -29 -2 -34 -23z"/>
<path d="M2600 1113 c0 -5 17 -21 38 -37 l37 -29 -34 36 c-36 39 -41 42 -41
30z"/>
<path d="M1348 1002 c-34 -33 -60 -63 -57 -66 3 -3 34 21 69 54 36 32 62 61
58 65 -3 4 -35 -20 -70 -53z"/>
<path d="M3550 1054 c0 -4 27 -32 60 -63 33 -32 60 -62 60 -67 0 -6 -10 -16
-22 -23 -13 -6 -35 -19 -50 -29 -22 -14 -80 -48 -188 -107 -13 -7 -26 -18 -28
-23 -5 -16 59 -4 95 18 19 11 41 20 49 20 8 0 14 4 14 8 0 5 18 14 40 21 22 6
40 17 40 23 0 6 3 9 6 6 3 -4 14 1 25 10 10 9 28 25 39 35 37 32 24 58 -68
140 -37 33 -72 48 -72 31z"/>
<path d="M1080 905 c19 -19 36 -35 39 -35 3 0 -10 16 -29 35 -19 19 -36 35
-39 35 -3 0 10 -16 29 -35z"/>
<path d="M3899 923 c-13 -16 -12 -17 4 -4 16 13 21 21 13 21 -2 0 -10 -8 -17
-17z"/>
<path d="M1297 900 c7 -26 174 -135 187 -122 3 3 6 1 6 -5 0 -12 42 -32 87
-43 56 -13 27 16 -60 61 -45 23 -105 56 -132 74 -86 55 -94 58 -88 35z"/>
<path d="M3858 885 c-10 -13 -56 -49 -103 -81 -47 -31 -84 -58 -82 -61 3 -2
39 19 80 48 74 50 135 105 126 113 -2 2 -12 -6 -21 -19z"/>
<path d="M1130 856 c0 -3 26 -23 58 -43 31 -21 59 -41 62 -44 12 -16 201 -110
213 -106 6 2 -6 12 -28 21 -95 42 -205 103 -225 126 -10 12 -80 51 -80 46z"/>
<path d="M3615 720 c-16 -11 -26 -20 -22 -20 11 0 67 29 67 35 0 10 -16 4 -45
-15z"/>
<path d="M1621 726 c31 -29 460 -158 475 -143 3 3 -28 12 -68 21 -40 9 -91 23
-113 30 -22 8 -85 29 -140 46 -55 18 -104 36 -109 41 -6 5 -19 9 -30 9 -10 0
-17 -2 -15 -4z"/>
<path d="M3245 694 c-44 -18 -75 -33 -68 -34 14 0 173 60 173 66 0 9 -28 0
-105 -32z"/>
<path d="M1594 690 c-11 -11 -40 -24 -64 -29 -25 -5 -35 -9 -24 -10 42 -2 79
11 97 35 22 29 18 31 -9 4z"/>
<path d="M3530 680 c-19 -11 -30 -19 -24 -20 12 0 74 29 74 36 0 8 -15 3 -50
-16z"/>
<path d="M3387 669 c7 -7 15 -10 18 -7 3 3 -2 9 -12 12 -14 6 -15 5 -6 -5z"/>
<path d="M3070 635 c-22 -8 -28 -13 -15 -13 11 0 36 6 55 13 22 8 28 13 15 13
-11 0 -36 -6 -55 -13z"/>
<path d="M2885 590 c-27 -7 -27 -8 -5 -8 14 0 36 4 50 8 20 6 21 8 5 8 -11 0
-33 -4 -50 -8z"/>
<path d="M2733 563 c9 -2 25 -2 35 0 9 3 1 5 -18 5 -19 0 -27 -2 -17 -5z"/>
<path d="M2648 553 c12 -2 30 -2 40 0 9 3 -1 5 -23 4 -22 0 -30 -2 -17 -4z"/>
<path d="M2528 543 c12 -2 32 -2 45 0 12 2 2 4 -23 4 -25 0 -35 -2 -22 -4z"/>
</g>
</svg>
